<svg width="70" height="70" viewBox="0 0 70 70" fill="none" xmlns="http://www.w3.org/2000/svg">
<path fill-rule="evenodd" clip-rule="evenodd" d="M0 35C0 63.8225 6.1775 70 35 70C63.8225 70 70 63.8225 70 35C70 6.1775 63.8225 0 35 0C6.1775 0 0 6.1775 0 35ZM20.4167 35C20.4167 33.3892 21.7225 32.0833 23.3333 32.0833H32.0833V23.3333C32.0833 21.7225 33.3892 20.4167 35 20.4167C36.6108 20.4167 37.9167 21.7225 37.9167 23.3333V32.0833H46.6667C48.2775 32.0833 49.5833 33.3892 49.5833 35C49.5833 36.6108 48.2775 37.9167 46.6667 37.9167H37.9167V46.6667C37.9167 48.2775 36.6108 49.5833 35 49.5833C33.3892 49.5833 32.0833 48.2775 32.0833 46.6667V37.9167H23.3333C21.7225 37.9167 20.4167 36.6108 20.4167 35Z" fill="#F2F2F2"/>
</svg>
