<svg width="59" height="71" viewBox="0 0 59 71" fill="none" xmlns="http://www.w3.org/2000/svg">
<path fill-rule="evenodd" clip-rule="evenodd" d="M1.37845 62.8949C0.987469 57.8424 0.471415 48.647 0.471499 35.3092V35.0699C0.471406 29.8497 0.471323 25.1054 0.862936 21.1059C1.25947 17.0562 2.11009 13.0301 4.31702 9.61895C9.06703 2.27707 18.0021 0.662163 29.5391 0.614551C41.1008 0.566836 50.0585 2.1647 54.8168 9.55861C57.0185 12.9797 57.8675 17.02 58.2636 21.081C58.655 25.0944 58.6549 29.8499 58.6548 35.0723V35.3092C58.6548 48.647 58.1387 57.8424 57.7477 62.8949C57.2423 69.4257 49.9314 72.7409 44.7006 69.0622C41.5993 66.9362 38.7435 64.6575 36.585 62.9353C35.5694 62.1249 34.7081 61.4377 34.0484 60.9476C31.6075 59.1343 30.5629 58.9251 29.5631 58.9251C28.5634 58.9251 27.5188 59.1343 25.0779 60.9476C24.4182 61.4377 23.5567 62.125 22.5413 62.9353C20.3828 64.6575 17.527 66.9361 14.4257 69.0621C9.19492 72.741 1.88383 69.4257 1.37845 62.8949ZM35.3815 18.1078C36.9551 18.1078 37.6196 18.1259 38.1707 18.2747C38.5551 18.3784 39.0374 18.5915 39.8727 19.4266C39.8721 19.426 39.8721 19.4259 39.8727 19.4266C39.8791 19.4339 39.9478 19.5122 40.0509 19.7168C40.1612 19.9353 40.2812 20.239 40.3995 20.6386C40.6383 21.4457 40.8184 22.4658 40.9448 23.607C41.1974 25.8874 41.1998 28.2896 41.1998 29.7593C41.1998 31.3696 42.5023 32.675 44.109 32.675C45.7157 32.675 47.0181 31.3696 47.0181 29.7593V29.7248C47.0182 28.2706 47.0182 25.5866 46.7276 22.9636C46.5813 21.6425 46.3523 20.2464 45.9775 18.9802C45.6225 17.7805 45.0409 16.3568 43.9815 15.2978C42.635 13.9517 41.299 13.0798 39.6834 12.6438C38.3121 12.2737 36.8795 12.2751 35.5977 12.2763L35.3815 12.2764C33.7748 12.2764 32.4723 13.5818 32.4723 15.1921C32.4723 16.8024 33.7748 18.1078 35.3815 18.1078Z" fill="#F2F2F2"/>
</svg>
