<svg width="40" height="44" viewBox="0 0 40 44" fill="none" xmlns="http://www.w3.org/2000/svg">
<path d="M25 1.68157C25 0.752867 25.7462 0 26.6667 0C27.5871 0 28.3333 0.752867 28.3333 1.68157V8.40787C28.3333 9.33658 27.5871 10.0894 26.6667 10.0894C25.7462 10.0894 25 9.33658 25 8.40787V1.68157Z" fill="#212135"/>
<path d="M23.3333 3.42107C22.2859 3.3813 21.1759 3.36315 20 3.36315C18.8241 3.36315 17.7141 3.3813 16.6667 3.42107V8.40787C16.6667 10.2653 15.1743 11.771 13.3333 11.771C11.4924 11.771 10 10.2653 10 8.40787V4.16299C4.15384 5.45287 1.5124 8.52899 0.513435 14.9676C0.360764 15.9516 1.13737 16.8157 2.12452 16.8157H37.8755C38.8626 16.8157 39.6392 15.9516 39.4866 14.9676C38.4876 8.52899 35.8462 5.45287 30 4.16299V8.40787C30 10.2653 28.5076 11.771 26.6667 11.771C24.8257 11.771 23.3333 10.2653 23.3333 8.40787V3.42107Z" fill="#212135"/>
<path fill-rule="evenodd" clip-rule="evenodd" d="M20 43.7209C3.53 43.7209 0 40.1594 0 23.542C0 22.9438 0.0045746 22.3625 0.0141628 21.7977C0.0295086 20.8938 0.766452 20.1789 1.66254 20.1789H38.3375C39.2335 20.1789 39.9705 20.8938 39.9858 21.7977C39.9954 22.3625 40 22.9438 40 23.542C40 40.1594 36.47 43.7209 20 43.7209ZM8.33333 26.9052C8.33333 25.9765 9.07953 25.2236 10 25.2236H15C15.9205 25.2236 16.6667 25.9765 16.6667 26.9052C16.6667 27.8339 15.9205 28.5868 15 28.5868H10C9.07953 28.5868 8.33333 27.8339 8.33333 26.9052ZM10 31.9499C9.07953 31.9499 8.33333 32.7028 8.33333 33.6315C8.33333 34.5602 9.07953 35.3131 10 35.3131H15C15.9205 35.3131 16.6667 34.5602 16.6667 33.6315C16.6667 32.7028 15.9205 31.9499 15 31.9499H10ZM23.3333 26.9052C23.3333 25.9765 24.0795 25.2236 25 25.2236H30C30.9205 25.2236 31.6667 25.9765 31.6667 26.9052C31.6667 27.8339 30.9205 28.5868 30 28.5868H25C24.0795 28.5868 23.3333 27.8339 23.3333 26.9052ZM25 31.9499C24.0795 31.9499 23.3333 32.7028 23.3333 33.6315C23.3333 34.5602 24.0795 35.3131 25 35.3131H30C30.9205 35.3131 31.6667 34.5602 31.6667 33.6315C31.6667 32.7028 30.9205 31.9499 30 31.9499H25Z" fill="#212135"/>
<path d="M11.6667 1.68157C11.6667 0.752867 12.4129 0 13.3333 0C14.2538 0 15 0.752867 15 1.68157V8.40787C15 9.33658 14.2538 10.0894 13.3333 10.0894C12.4129 10.0894 11.6667 9.33658 11.6667 8.40787V1.68157Z" fill="#212135"/>
</svg>
