<svg width="40" height="40" viewBox="0 0 40 40" fill="none" xmlns="http://www.w3.org/2000/svg">
<path d="M20.9757 25.2363C22.2645 26.1442 23.6158 26.9077 25.0086 27.4854C25.8735 27.7991 27.2306 26.9109 28.2284 26.2579C28.4779 26.0946 28.7049 25.9461 28.8961 25.8347L28.9589 25.7995C29.8988 25.2716 30.9425 24.6855 32.2846 24.9681C33.4903 25.2157 37.6273 28.4758 38.7706 29.6314C39.519 30.3742 39.9348 31.1583 39.9972 31.963C40.1219 34.9549 36.1097 38.3183 35.1534 38.896C33.1162 40.3817 30.3929 40.361 27.1083 38.8754C23.595 37.4516 19.3957 34.4597 15.342 30.8281C13.8909 29.5281 11.1042 26.7911 10.3111 25.8769C6.21577 21.4406 2.76487 16.6742 1.14337 12.8156C0.374194 11.1855 0 9.67924 0 8.33802C0 7.01745 0.374194 5.84131 1.10179 4.83024C1.53835 4.06678 5.05161 -0.101289 8.1491 0.00188282C8.91827 0.084417 9.70824 0.476464 10.4774 1.21929C11.6416 2.35416 14.9885 6.46033 15.238 7.67773C15.5226 8.98936 14.9324 10.0247 14.4007 10.9575L14.3649 11.0204C14.245 11.2275 14.0826 11.4731 13.905 11.7416C13.2506 12.7308 12.3907 14.0307 12.6997 14.8584C13.471 16.7567 14.5728 18.6138 15.9011 20.3264C17.3754 22.0891 19.6868 24.3284 20.9757 25.2363Z" fill="#212135"/>
</svg>
