<svg width="71" height="71" viewBox="0 0 71 71" fill="none" xmlns="http://www.w3.org/2000/svg">
<path fill-rule="evenodd" clip-rule="evenodd" d="M18.8763 1.98017C23.4348 0.96709 28.9933 0.613525 35.6629 0.613525C42.3324 0.613525 47.8909 0.96709 52.4494 1.98017C57.0409 3.0006 60.7946 4.72852 63.6655 7.59945C66.5365 10.4704 68.2644 14.2241 69.2848 18.8156C70.2979 23.3741 70.6515 28.9326 70.6515 35.6021C70.6515 42.2717 70.2979 47.8302 69.2848 52.3887C68.2644 56.9802 66.5365 60.7339 63.6655 63.6048C60.7946 66.4757 57.0409 68.2037 52.4494 69.2241C47.8909 70.2372 42.3324 70.5907 35.6629 70.5907C28.9933 70.5907 23.4348 70.2372 18.8763 69.2241C14.2848 68.2037 10.5311 66.4757 7.66018 63.6048C4.78925 60.7339 3.06133 56.9802 2.0409 52.3887C1.02782 47.8302 0.674255 42.2717 0.674255 35.6021C0.674255 28.9326 1.02782 23.3741 2.0409 18.8156C3.06133 14.2241 4.78925 10.4704 7.66018 7.59945C10.5311 4.72852 14.2848 3.0006 18.8763 1.98017ZM37.4684 16.9891C39.6468 14.7047 43.2743 14.5848 45.6031 16.707L54.2071 24.5481C56.5738 26.7048 56.7099 30.363 54.4957 32.685L36.7731 51.2695C35.6772 52.4187 34.1591 53.0606 32.5832 53.0664L24.5136 53.0964C21.5155 53.1075 18.9245 50.8257 18.7161 47.7556L18.1816 39.8846C18.073 38.2851 18.6473 36.7255 19.7458 35.5736L37.4684 16.9891ZM41.6789 21.0236L39.0512 23.7791L47.5758 31.4916L50.1764 28.7645L41.6822 21.0236L41.6789 21.0236ZM43.55 35.7132L35.0254 28.0007L24.0042 39.5579L24.5276 47.2649L32.5616 47.235L43.55 35.7132Z" fill="#F2F2F2"/>
</svg>
