<svg width="40" height="45" viewBox="0 0 40 45" fill="none" xmlns="http://www.w3.org/2000/svg">
<path d="M16.6667 18.7264C16.6667 20.7949 18.1591 22.4717 20 22.4717C21.8409 22.4717 23.3333 20.7949 23.3333 18.7264C23.3333 16.6579 21.8409 14.9811 20 14.9811C18.1591 14.9811 16.6667 16.6579 16.6667 18.7264Z" fill="#212135"/>
<path fill-rule="evenodd" clip-rule="evenodd" d="M17.568 43.6626C12.7447 40.8995 2.26239 33.7057 0.291783 22.4717C-1.35065 13.1085 3.77028 0 20 0C36.2297 0 41.3506 13.1085 39.7082 22.4717C37.7377 33.7058 27.2553 40.8995 22.4321 43.6626C20.8919 44.5449 19.1081 44.5449 17.568 43.6626ZM13.3333 18.7264C13.3333 22.8633 16.3181 26.217 20 26.217C23.6819 26.217 26.6667 22.8633 26.6667 18.7264C26.6667 14.5895 23.6819 11.2358 20 11.2358C16.3181 11.2358 13.3333 14.5895 13.3333 18.7264Z" fill="#212135"/>
</svg>
