<svg width="40" height="37" viewBox="0 0 40 37" fill="none" xmlns="http://www.w3.org/2000/svg">
<path d="M20 36.2791C3.53 36.2791 0 33.0774 0 18.1395C0 14.0341 0.266637 10.8151 0.995258 8.30544C2.86088 10.1561 5.21509 12.3814 7.77211 14.3636C11.3987 17.1749 15.7909 19.7886 20 19.7886C24.2091 19.7886 28.6013 17.1749 32.2279 14.3636C34.7849 12.3814 37.1391 10.1561 39.0047 8.30544C39.7334 10.8151 40 14.0341 40 18.1395C40 33.0774 36.47 36.2791 20 36.2791Z" fill="#212135"/>
<path d="M37.5522 5.0677C35.5993 7.037 33.009 9.56832 30.1721 11.7675C26.5987 14.5375 22.9909 16.4905 20 16.4905C17.0091 16.4905 13.4013 14.5375 9.82789 11.7675C6.99101 9.56832 4.40069 7.037 2.44777 5.0677C5.09484 1.10915 10.306 0 20 0C29.694 0 34.9052 1.10915 37.5522 5.0677Z" fill="#212135"/>
</svg>
